<svg xmlns="http://www.w3.org/2000/svg" width="24" height="24" viewBox="0 0 24 24" fill="none" id="header-home" y="372"><path fill-rule="evenodd" clip-rule="evenodd" d="M11.293 2.293a1 1 0 0 1 1.414 0l9 9A1 1 0 0 1 21 13v7a2 2 0 0 1-2 2H5a2 2 0 0 1-2-2v-7a1 1 0 0 1-.707-1.707l.02-.02.021-.021.02-.021.022-.02.02-.022.021-.02.021-.021.021-.021.021-.021.021-.021.021-.021.021-.021.021-.021.021-.022.022-.02.02-.022.022-.021.022-.022.02-.021.022-.022.022-.021.021-.022.022-.021.021-.022.022-.021.022-.022.021-.021.022-.022.022-.022.022-.022.021-.022.022-.021.022-.022.022-.022.022-.022.022-.022.022-.022.022-.022.022-.022.022-.022.022-.022.023-.023.022-.022.022-.022.022-.022.023-.023.008-.009.003-.003.01-.01.023-.022.023-.023.022-.022.022-.023.023-.022.022-.023.023-.022.023-.023.022-.022.023-.023.022-.023.023-.022.023-.023.022-.023.023-.022.023-.023.023-.023.023-.023.022-.023.023-.022.023-.023.023-.023.023-.023.023-.023.023-.023.023-.023.023-.023.023-.023.023-.023.023-.023.023-.023.023-.023.023-.024.023-.023.024-.023.023-.023.023-.023.023-.023.023-.024.024-.023.023-.023.023-.023.024-.024.023-.023.023-.023.024-.024.023-.023.023-.023.024-.024.023-.023.023-.024.024-.023.023-.023.024-.024.023-.023.024-.024.023-.023.024-.024.023-.023.024-.024.023-.023.024-.024.023-.023.024-.024.023-.023.024-.024.023-.024.024-.023.024-.024.023-.023.024-.024.023-.024.024-.023.024-.024.023-.023.024-.024.023-.024.024-.023.024-.024.023-.023.024-.024.024-.024.023-.023.024-.024.023-.024.024-.023.024-.024.023-.024.024-.023.024-.024.023-.024.024-.023.024-.024.023-.023.024-.024.024-.024.023-.023.024-.024.023-.024.024-.023.024-.024.023-.024.024-.023.024-.024.023-.023.024-.024.023-.024.024-.023.023-.024.024-.023.024-.024.023-.023.024-.024.023-.023.024-.024.023-.024.024-.023.023-.024.024-.023.023-.024.024-.023.023-.023.024-.024.023-.023.024-.024.023-.023.023-.024.024-.023.023-.023.024-.024.023-.023.023-.023.024-.024.023-.023.023-.023.023-.024.024-.023.023-.023.023-.023.023-.024.024-.023.023-.023.023-.023.023-.023.023-.023.023-.023.023-.024.023-.023.023-.023.023-.023.023-.023.023-.023.023-.023.023-.022.023-.023.023-.023.023-.023.023-.023.023-.023.022-.023.023-.022.023-.023.023-.023.022-.023.023-.022.023-.023.022-.023.023-.022.023-.023.022-.022.023-.023.022-.022.023-.023.022-.022.022-.023.023-.022.022-.022.022-.023.023-.022.022-.022.022-.022.022-.023.023-.022.022-.022.022-.022.022-.022.022-.022.022-.022.022-.022.022-.022.022-.022.022-.022.021-.022.022-.022.022-.021.022-.022.021-.022.022-.021.022-.022.021-.022.022-.021.021-.022.022-.021.021-.022.022-.02.021-.022.021-.022.022-.02.02-.022.022-.021.021-.021.021-.022.021-.02.021-.022.021-.02.021-.022.021-.02.021-.021.021-.021.02-.021.022-.02.02-.021.02-.021.021-.02.021-.021.02-.02.021-.021.02-.02.02-.021.021-.02.02-.02.02-.02.02-.021.02-.02.021-.02.02-.02.02-.02.02-.02.02-.02.02-.02.02-.02.02-.02.019-.02.02-.019.02-.02.019-.019.02-.02.019-.019.019-.02.02-.018.018-.02.02-.019.019-.02.019-.018.019-.02.019-.018.019-.02.019-.018.019-.019.018-.019.02-.018.018-.019.018-.019.019-.018.018-.019.019-.018.018-.018.018-.019.019-.018.018-.018.018-.018.018-.018.018-.018.018-.018.018-.018.018-.018.017-.018.018-.017.018-.018.017-.017.018-.018.017-.017.017-.018.018-.017.017-.017.017-.017.017-.017.017-.018.017-.016.017-.017.017-.017.017-.017.016-.017.017-.016.017-.017.016-.016.017-.017.016-.016.016-.016.016-.017.017-.016.016-.016.016-.016.016-.016.015-.016.016-.015.016-.016.016-.016.015-.015.016-.016.015-.015.015-.016.016-.015.015-.015.015-.015.015-.015.015-.015.015-.015.015-.015.014-.015.015-.014.015-.015.014-.014.015-.015.014-.014.014-.014.014-.015.014-.014.015-.014.014-.014.013-.014.014-.013.014-.014.014-.014.013-.013.014-.014.013-.013.013-.013.013-.014.014-.013.013-.013.013-.013.012-.013.013-.012.013-.013.013-.013.012-.012.013-.013.012-.012.012-.012.012-.013.013-.012.012-.012.011-.012.012-.011.012-.012.012-.012.011-.011.012-.012.011-.011.011-.012.012-.01.01-.012.012-.011.01-.01.011-.012.011-.01.011-.011.01-.01.011-.011.01-.01.01-.01.01-.011.01-.01.01-.01.01-.01.01-.01.01-.01.01-.01.01-.009.009-.01.01-.008.008-.01.01-.009.009-.009.008-.009.01-.009.008-.008.009-.009.008-.008.009-.009.008-.008.008-.008.008-.009.008-.008.008-.007.008-.008.008-.008.007-.008.008-.007.007-.008.008-.007.007-.007.007-.007.007-.007.007-.007.007-.007.006-.006.007-.007.006-.006.007-.007.006-.006.006-.006.006-.006.006-.006.006-.006.005-.006.006-.005.005-.006.006-.005.005-.005.005-.005.005-.005.005-.005.005-.005.005-.005.004-.005.005-.004.004-.004.004-.005.005-.004.003-.004.004-.004.004-.003.004-.004.004-.004.003-.003.003-.003.003-.004.004-.003.002-.003.003-.003.003-.002.003-.003.002-.002.003-.003.002-.002.002-.002.002-.002.002-.002.002-.002.001-.002.002-.001.001-.002h.002v-.002l.002-.001v-.001h.002v-.002h.001v-.001L12 3l-.707-.707zM10 20h4v-5h-4v5zm6 0v-5a2 2 0 0 0-2-2h-4a2 2 0 0 0-2 2v5H5v-8.586l.012-.012.023-.022.022-.023.023-.023.023-.023.023-.022.023-.023.022-.023.023-.023.023-.023.023-.023.023-.023.023-.023.023-.023.023-.023.023-.023.023-.023.023-.023.023-.023.023-.023.024-.023.023-.023.023-.024.023-.023.023-.023.023-.023.024-.023.023-.024.023-.023.023-.023.024-.024.023-.023.023-.023.024-.023.023-.024.023-.023.024-.024.023-.023.024-.023.023-.024.023-.023.024-.024.023-.023.024-.024.023-.023.024-.024.023-.023.024-.024.023-.023.024-.024.023-.023.024-.024.023-.023.024-.024.024-.023.023-.024.024-.024.023-.023.024-.024.024-.023.023-.024.024-.024.023-.023.024-.024.024-.023.023-.024.024-.024.023-.023.024-.024.024-.024.023-.023.024-.024.024-.023.023-.024.024-.024.024-.023.023-.024.024-.024.024-.023.023-.024.024-.024.023-.023.024-.024.024-.024.023-.023.024-.024.024-.023.023-.024.024-.024.024-.023.023-.024.024-.024.023-.023.024-.024.024-.023.023-.024.024-.023.023-.024.024-.024.023-.023.024-.024.023-.023.024-.024.024-.023.023-.024.024-.023.023-.024.024-.023.023-.024.023-.023.024-.024.023-.023.024-.024.023-.023.024-.023.023-.024.023-.023.024-.024.023-.023.023-.023.024-.024.023-.023.023-.023.024-.023.023-.024.023-.023.023-.023.024-.023.023-.024.023-.023.023-.023.023-.023.023-.023.023-.023.024-.023.023-.023.023-.023.023-.023.023-.023.023-.023.023-.023.022-.023.023-.023.023-.023.023-.023.023-.023.023-.023.023-.022.022-.023.023-.023.023-.023.023-.022.022-.023.023-.023.023-.022.022-.023.023-.023.022-.022.023-.023.022-.022.023-.023.022-.022.023-.022.022-.023.022-.022.023-.022.022-.023.022-.022.022-.022.023-.022.022-.023.022-.022.022-.022.022-.022.022-.022.022-.022.022-.022.022-.022.022-.022.022-.022.022-.021.022-.022.021-.022.022-.022.022-.021.021-.022.022-.022.022-.021.021-.022.022-.021.021-.022.022-.021.02-.022.022-.021.022-.021.02-.022.022-.02.021-.022.021-.021.022-.021.02-.021.022-.021.02-.021.022-.021.02-.021.021-.021.021-.021.021-.02.02-.022.021-.02.021-.02.02-.021.021-.021.02-.02.021-.021.02-.02.021-.02.02-.021.02-.02.02-.02.021-.02.02-.02.02-.021.02-.02.02-.02.02-.02.02-.02.02-.02.02-.02.02-.02.02-.019.019-.02.02-.02.019-.019.02-.02.019-.019.02-.019.018-.02.02-.019.019-.019.02-.019.018-.019.02-.019.018-.019.02-.019.018-.019.019-.019.019-.018.018-.02.019-.018.018-.018.02-.019.018-.018.018-.019.018-.018.019-.018.018-.019.018-.018.018-.018.018-.018.018-.018.018-.018.018-.018.018-.018.018-.017.017-.018.018-.018.017-.017.018-.018.017-.017.018-.017.017-.018.017-.017.017-.017.018-.017.017-.017.017-.017.016-.017.017-.017.017-.017.017-.016.016-.017.017-.017.016-.016.017-.017.016-.016.016-.016.017-.016.016-.017.016-.016.016-.016.016-.016.016-.015.015-.016.016-.016.016-.016.015-.015.016-.016.015-.015.016-.015.015-.016.015-.015.015-.015.015-.015.015-.015.015-.015.015-.015.015-.014.014-.015.015-.015.014-.014.015-.015.014-.014.014-.014.015-.014.014-.015.014-.014.014-.014.014-.013.013-.014.014-.014.014-.014.013-.013.014-.014.013-.013.013-.013.014-.013.013-.014.013-.013.013-.013.013-.012.012-.013.013-.013.013-.013.012-.012.013-.013.012-.012.012-.012.013-.012.012-.012.012-.013.002-.002 7 7V20h-3z" fill="#808EA9"/></svg>