<svg xmlns="http://www.w3.org/2000/svg" xmlns:xlink="http://www.w3.org/1999/xlink" width="55" height="55" viewBox="0 0 55 55">
  <defs>
    <clipPath id="clip-path">
      <rect id="사각형_881" data-name="사각형 881" width="42" height="42.302" fill="none"/>
    </clipPath>
  </defs>
  <g id="ico_service01" transform="translate(0 -2256)">
    <g id="그룹_57" data-name="그룹 57" transform="translate(0 2256)" opacity="0">
      <rect id="사각형_8" data-name="사각형 8" width="55" height="55" fill="#fff"/>
    </g>
    <g id="그룹_2030" data-name="그룹 2030" transform="translate(6.5 2263.404)">
      <g id="그룹_1988" data-name="그룹 1988" transform="translate(0 -1.054)">
        <g id="그룹_1987" data-name="그룹 1987" clip-path="url(#clip-path)">
          <path id="패스_4565" data-name="패스 4565" d="M43.286,0a8.4,8.4,0,0,0-8.165,8.591,8.923,8.923,0,0,0,1.24,4.553L42.593,23.65a.8.8,0,0,0,1.385,0l6.23-10.5.008-.013A8.914,8.914,0,0,0,51.45,8.591,8.4,8.4,0,0,0,43.286,0" transform="translate(-18.181 0)" fill="#a3d5f4"/>
          <path id="패스_4566" data-name="패스 4566" d="M38.836,46.384H3.164A3.107,3.107,0,0,1,0,43.345V21.221a3.107,3.107,0,0,1,3.164-3.039h7.85V19.7H3.164a1.628,1.628,0,0,0-1.717,1.516V43.345a1.628,1.628,0,0,0,1.717,1.516H38.836a1.628,1.628,0,0,0,1.717-1.516V21.221A1.628,1.628,0,0,0,38.836,19.7H30.872V18.182h7.964A3.107,3.107,0,0,1,42,21.221V43.345a3.107,3.107,0,0,1-3.164,3.039" transform="translate(0 -8.954)" fill="#070303"/>
          <rect id="사각형_877" data-name="사각형 877" width="40.553" height="1.523" transform="translate(0.724 31.336)" fill="#070303"/>
          <rect id="사각형_878" data-name="사각형 878" width="13.478" height="1.523" transform="translate(14.261 40.779)" fill="#070303"/>
          <rect id="사각형_879" data-name="사각형 879" width="1.447" height="5.128" transform="translate(17.726 36.117)" fill="#070303"/>
          <rect id="사각형_880" data-name="사각형 880" width="1.447" height="5.128" transform="translate(22.827 36.117)" fill="#070303"/>
          <path id="패스_4567" data-name="패스 4567" d="M34.776,27.493a.808.808,0,0,1-.693-.4L27.851,16.583a8.927,8.927,0,0,1-1.24-4.554,8.4,8.4,0,0,1,8.165-8.591,8.4,8.4,0,0,1,8.165,8.591,8.919,8.919,0,0,1-1.234,4.543l-.008.013-6.23,10.5a.808.808,0,0,1-.693.4m-5.361-11.52,5.361,9.038,5.361-9.038a.862.862,0,0,1,.042-.078v0l.146-.24.005-.009a7.124,7.124,0,0,0,.976-3.616,6.717,6.717,0,0,0-6.532-6.873,6.717,6.717,0,0,0-6.531,6.873,7.136,7.136,0,0,0,.978,3.619l0,.005.148.242a.858.858,0,0,1,.042.078" transform="translate(-13.776 -1.693)" fill="#070303"/>
          <path id="패스_4568" data-name="패스 4568" d="M42.662,27.238a.839.839,0,0,1-.817-.859V21.224a.818.818,0,1,1,1.633,0v5.155a.839.839,0,0,1-.817.859" transform="translate(-21.662 -10.029)" fill="#070303"/>
          <path id="패스_4569" data-name="패스 4569" d="M43.448,14.037a1.226,1.226,0,1,0-1.225,1.289,1.258,1.258,0,0,0,1.225-1.289" transform="translate(-21.224 -6.278)" fill="#070303"/>
        </g>
      </g>
    </g>
  </g>
</svg>
